<svg width="503" height="479" viewBox="0 0 503 479" fill="none" xmlns="http://www.w3.org/2000/svg">
<path d="M38.229 4.4231H27.9365V478.857H38.229V4.4231Z" fill="#888888"/>
<path d="M347.003 0.501953H2.45062V4.42289H347.003V0.501953Z" fill="#888888"/>
<path d="M346.514 4.4231H336.221V14.7156H346.514V4.4231Z" fill="#888888"/>
<path d="M499.92 4.4231H489.627V14.7156H499.92V4.4231Z" fill="#888888"/>
<path d="M346.514 157.83H336.221V168.122H346.514V157.83Z" fill="#888888"/>
<path d="M38.229 157.83H27.9365V168.122H38.229V157.83Z" fill="#888888"/>
<path d="M346.514 312.707H336.221V322.999H346.514V312.707Z" fill="#888888"/>
<path d="M192.127 312.707H181.834V322.999H192.127V312.707Z" fill="#888888"/>
<path d="M38.229 312.707H27.9365V322.999H38.229V312.707Z" fill="#888888"/>
<path d="M499.92 465.134H489.627V475.426H499.92V465.134Z" fill="#888888"/>
<path d="M346.514 465.134H336.221V475.426H346.514V465.134Z" fill="#888888"/>
<path d="M192.127 465.134H181.834V475.426H192.127V465.134Z" fill="#888888"/>
<path d="M38.229 465.134H27.9365V475.426H38.229V465.134Z" fill="#888888"/>
<path d="M38.229 4.4231H27.9365V14.7156H38.229V4.4231Z" fill="#888888"/>
<path d="M192.616 4.4231H182.324V14.7156H192.616V4.4231Z" fill="#888888"/>
<path d="M502.861 474.936H6.10352e-05V478.857H502.861V474.936Z" fill="#888888"/>
<path d="M502.861 312.707H500.411V478.857H502.861V312.707Z" fill="#888888"/>
<path d="M182.324 371.031H177.913V476.896H182.324V371.031Z" fill="#888888"/>
<path d="M192.617 371.031H177.913V374.952H192.617V371.031Z" fill="#888888"/>
<path d="M492.569 312.707H387.684V322.999H492.569V312.707Z" fill="#888888"/>
<path d="M492.569 157.83H387.684V168.122H492.569V157.83Z" fill="#888888"/>
<path d="M499.92 312.707H489.627V322.999H499.92V312.707Z" fill="#888888"/>
<path d="M499.92 157.83H489.627V168.122H499.92V157.83Z" fill="#888888"/>
<path d="M502.861 74.9995H500.411V168.122H502.861V74.9995Z" fill="#888888"/>
<path d="M502.861 74.9995H467.082V78.9205H502.861V74.9995Z" fill="#888888"/>
<path d="M182.324 4.4231H177.913V109.308H182.324V4.4231Z" fill="#888888"/>
<path d="M192.617 106.857H177.913V109.308H192.617V106.857Z" fill="#888888"/>
<path d="M493.059 11.2842H347.004V14.715H493.059V11.2842Z" fill="#888888"/>
<path d="M360.237 14.7155H355.826V78.9209H360.237V14.7155Z" fill="#888888"/>
<path d="M382.782 74.9995H332.79V78.9205H382.782V74.9995Z" fill="#888888"/>
<path d="M365.628 17.656H363.667V72.0591H365.628V17.656Z" fill="#888888"/>
<path d="M423.952 17.656H421.992V72.0591H423.952V17.656Z" fill="#888888"/>
<path d="M430.323 17.656H428.362V72.0591H430.323V17.656Z" fill="#888888"/>
<path d="M485.706 17.656H483.746V72.0591H485.706V17.656Z" fill="#888888"/>
<path d="M423.952 17.656H363.667V20.5967H423.952V17.656Z" fill="#888888"/>
<path d="M485.706 17.656H428.362V20.5967H485.706V17.656Z" fill="#888888"/>
<path d="M395.035 70.0983H363.667V72.0587H395.035V70.0983Z" fill="#888888"/>
<path d="M423.952 70.0983H414.64V72.0587H423.952V70.0983Z" fill="#888888"/>
<path d="M437.675 70.0983H430.813V72.0587H437.675V70.0983Z" fill="#888888"/>
<path d="M485.707 70.0983H458.751V72.0587H485.707V70.0983Z" fill="#888888"/>
<path d="M416.11 67.1578H380.821V35.7903H416.11V67.1578ZM382.292 66.1776H415.129V36.7705H382.292V66.1776Z" fill="#888888"/>
<path d="M382.286 35.8026L381.306 36.8988L415.286 67.2785L416.266 66.1823L382.286 35.8026Z" fill="#888888"/>
<path d="M415.284 35.7979L381.317 66.1958L382.297 67.2915L416.264 36.8936L415.284 35.7979Z" fill="#888888"/>
<path d="M471.984 67.1578H436.695V35.7903H471.984V67.1578ZM438.166 66.1776H470.513V36.7705H437.676V66.1776H438.166Z" fill="#888888"/>
<path d="M438.12 35.7468L437.141 36.8431L471.126 67.2183L472.106 66.122L438.12 35.7468Z" fill="#888888"/>
<path d="M471.144 35.7803L437.186 66.1874L438.167 67.2828L472.125 36.8757L471.144 35.7803Z" fill="#888888"/>
<path d="M76.4584 199H63.7153V212.723H76.4584V209.782H66.656V202.431H76.4584V199Z" fill="#888888"/>
<path d="M76.4584 268.106H63.7153V282.32H76.4584V278.889H66.656V271.537H76.4584V268.106Z" fill="#888888"/>
<path d="M182.813 165.672H38.7189V168.122H182.813V165.672Z" fill="#888888"/>
<path d="M182.813 312.707H38.7189V315.157H182.813V312.707Z" fill="#888888"/>
<path d="M192.127 157.83H181.834V168.122H192.127V157.83Z" fill="#888888"/>
<path d="M69.1061 168.612H68.1259V199.489H69.1061V168.612Z" fill="#888888"/>
<path d="M88.7109 202.92H75.4777V168.612H76.9481V201.94H88.2208L114.687 168.122L115.667 168.612L88.7109 202.92Z" fill="#888888"/>
<path d="M84.7909 168.613H83.8107V202.431H84.7909V168.613Z" fill="#888888"/>
<path d="M92.6321 169.102H91.6519V197.529H92.6321V169.102Z" fill="#888888"/>
<path d="M99.9838 169.102H99.0035V188.707H99.9838V169.102Z" fill="#888888"/>
<path d="M107.826 169.102H106.846V177.925H107.826V169.102Z" fill="#888888"/>
<path d="M69.1061 282.81H68.1259V312.707H69.1061V282.81Z" fill="#888888"/>
<path d="M114.687 313.197L88.2208 280.36H76.9481V312.707H75.4777V278.889H88.7109L115.667 312.217L114.687 313.197Z" fill="#888888"/>
<path d="M84.7909 279.379H83.8107V312.707H84.7909V279.379Z" fill="#888888"/>
<path d="M92.6321 284.28H91.6519V312.217H92.6321V284.28Z" fill="#888888"/>
<path d="M99.9838 293.102H99.0035V312.217H99.9838V293.102Z" fill="#888888"/>
<path d="M107.826 303.395H106.846V312.217H107.826V303.395Z" fill="#888888"/>
<path d="M69.1061 212.723H68.1259V268.106H69.1061V212.723Z" fill="#888888"/>
<path d="M210.75 283.79H194.086V279.869H186.734V275.948H178.402V272.027H75.4777V209.292H178.402V205.371H186.244V201.94H193.596V197.529H210.75V283.79ZM195.557 282.319H209.77V198.509H195.557V202.92H188.205V206.351H180.363V210.272H77.4382V270.556H180.363V274.477H188.695V278.398H196.047V282.319H195.557Z" fill="#888888"/>
<path d="M84.7909 209.782H83.8107V271.047H84.7909V209.782Z" fill="#888888"/>
<path d="M92.6321 209.782H91.6519V271.047H92.6321V209.782Z" fill="#888888"/>
<path d="M99.9838 209.782H99.0035V271.047H99.9838V209.782Z" fill="#888888"/>
<path d="M107.826 209.782H106.846V271.047H107.826V209.782Z" fill="#888888"/>
<path d="M115.667 209.782H114.687V271.047H115.667V209.782Z" fill="#888888"/>
<path d="M123.019 209.782H122.039V271.047H123.019V209.782Z" fill="#888888"/>
<path d="M131.352 209.782H130.372V271.047H131.352V209.782Z" fill="#888888"/>
<path d="M138.704 209.782H137.724V271.047H138.704V209.782Z" fill="#888888"/>
<path d="M164.679 209.782H163.699V271.047H164.679V209.782Z" fill="#888888"/>
<path d="M172.031 209.782H171.051V271.047H172.031V209.782Z" fill="#888888"/>
<path d="M179.383 209.782H178.402V271.047H179.383V209.782Z" fill="#888888"/>
<path d="M195.067 205.861H194.087V274.968H195.067V205.861Z" fill="#888888"/>
<path d="M202.419 201.45H201.439V279.869H202.419V201.45Z" fill="#888888"/>
<path d="M194.576 205.371H187.225V206.352H194.576V205.371Z" fill="#888888"/>
<path d="M194.576 274.478H187.225V275.458H194.576V274.478Z" fill="#888888"/>
<path d="M201.928 278.398H194.577V279.379H201.928V278.398Z" fill="#888888"/>
<path d="M202.909 201.94H194.577V202.92H202.909V201.94Z" fill="#888888"/>
<path d="M4.90121 14.2256H2.45062V15.2058H4.90121V14.2256Z" fill="#888888"/>
<path d="M328.869 15.2058H323.968V14.2256H328.869V15.2058ZM319.067 15.2058H314.165V14.2256H319.067V15.2058ZM309.264 15.2058H304.363V14.2256H309.264V15.2058ZM299.462 15.2058H294.561V14.2256H299.462V15.2058ZM289.66 15.2058H284.758V14.2256H289.66V15.2058ZM279.857 15.2058H274.956V14.2256H279.857V15.2058ZM270.055 15.2058H265.154V14.2256H270.055V15.2058ZM260.253 15.2058H255.351V14.2256H260.253V15.2058ZM250.45 15.2058H245.549V14.2256H250.45V15.2058ZM240.648 15.2058H235.747V14.2256H240.648V15.2058ZM230.845 15.2058H225.944V14.2256H230.845V15.2058ZM221.043 15.2058H216.142V14.2256H221.043V15.2058ZM211.241 15.2058H206.34V14.2256H211.241V15.2058ZM201.438 15.2058H196.537V14.2256H201.438V15.2058ZM191.636 15.2058H186.735V14.2256H191.636V15.2058ZM181.344 15.2058H176.442V14.2256H181.344V15.2058ZM171.541 15.2058H166.64V14.2256H171.541V15.2058ZM161.739 15.2058H156.838V14.2256H161.739V15.2058ZM151.936 15.2058H147.035V14.2256H151.936V15.2058ZM142.134 15.2058H137.233V14.2256H142.134V15.2058ZM132.332 15.2058H127.431V14.2256H132.332V15.2058ZM122.529 15.2058H117.628V14.2256H122.529V15.2058ZM112.727 15.2058H107.826V14.2256H112.727V15.2058ZM102.925 15.2058H98.0236V14.2256H102.925V15.2058ZM93.1224 15.2058H88.2212V14.2256H93.1224V15.2058ZM83.32 15.2058H78.4188V14.2256H83.32V15.2058ZM73.5177 15.2058H68.6165V14.2256H73.5177V15.2058ZM63.7153 15.2058H58.8141V14.2256H63.7153V15.2058ZM53.913 15.2058H49.0118V14.2256H53.913V15.2058ZM44.1106 15.2058H39.2094V14.2256H44.1106V15.2058ZM34.3083 15.2058H29.4071V14.2256H34.3083V15.2058ZM24.5059 15.2058H19.6047V14.2256H24.5059V15.2058ZM14.7035 15.2058H9.80237V14.2256H14.7035V15.2058Z" fill="#888888"/>
<path d="M336.221 14.2256H333.77V15.2058H336.221V14.2256Z" fill="#888888"/>
<path d="M41.1695 157.34H38.7189V158.32H41.1695V157.34Z" fill="#888888"/>
<path d="M380.331 158.81H375.43V157.34H380.331V158.81ZM370.529 158.81H365.627V157.34H370.529V158.81ZM360.726 158.81H355.825V157.34H360.726V158.81ZM351.414 158.81H346.513V157.34H351.414V158.81ZM341.612 158.81H336.71V157.34H341.612V158.81ZM331.809 158.81H326.908V157.34H331.809V158.81ZM322.007 158.81H317.106V157.34H322.007V158.81ZM312.695 158.81H307.794V157.34H312.695V158.81ZM302.892 158.81H297.991V157.34H302.892V158.81ZM293.09 158.81H288.189V157.34H293.09V158.81ZM283.288 158.81H278.386V157.34H283.288V158.81ZM273.485 158.81H268.584V157.34H273.485V158.81ZM264.173 158.81H259.272V157.34H264.173V158.81ZM254.371 158.81H249.47V157.34H254.371V158.81ZM244.568 158.81H239.667V157.34H244.568V158.81ZM234.766 158.81H229.865V157.34H234.766V158.81ZM225.454 158.81H220.553V157.34H225.454V158.81ZM215.651 158.81H210.75V157.34H215.651V158.81ZM205.849 158.81H200.948V157.34H205.849V158.81ZM196.047 158.81H191.146V157.34H196.047V158.81ZM186.244 158.81H181.343V157.34H186.244V158.81ZM176.932 158.81H172.031V157.34H176.932V158.81ZM167.13 158.81H162.229V157.34H167.13V158.81ZM157.327 158.81H152.426V157.34H157.327V158.81ZM147.525 158.81H142.624V157.34H147.525V158.81ZM137.723 158.81H132.822V157.34H137.723V158.81ZM128.41 158.81H123.509V157.34H128.41V158.81ZM118.608 158.81H113.707V157.34H118.608V158.81ZM108.806 158.81H103.905V157.34H108.806V158.81ZM99.0034 158.81H94.1022V157.34H99.0034V158.81ZM89.6912 158.81H84.79V157.34H89.6912V158.81ZM79.8888 158.81H74.9876V157.34H79.8888V158.81ZM70.0865 158.81H65.1853V157.34H70.0865V158.81ZM60.2841 158.81H55.3829V157.34H60.2841V158.81ZM50.4817 158.81H45.5806V157.34H50.4817V158.81Z" fill="#888888"/>
<path d="M387.683 157.34H385.232V158.32H387.683V157.34Z" fill="#888888"/>
<path d="M195.067 313.197H192.617V314.177H195.067V313.197Z" fill="#888888"/>
<path d="M380.332 314.667H375.43V313.687H380.332V314.667ZM370.529 314.667H365.628V313.687H370.529V314.667ZM360.727 314.667H355.826V313.687H360.727V314.667ZM350.925 314.667H346.023V313.687H350.925V314.667ZM341.122 314.667H336.221V313.687H341.122V314.667ZM331.32 314.667H326.419V313.687H331.32V314.667ZM322.008 314.667H317.106V313.687H322.008V314.667ZM312.205 314.667H307.304V313.687H312.205V314.667ZM302.403 314.667H297.502V313.687H302.403V314.667ZM292.601 314.667H287.699V313.687H292.601V314.667ZM282.798 314.667H277.897V313.687H282.798V314.667ZM272.996 314.667H268.095V313.687H272.996V314.667ZM263.194 314.667H258.292V313.687H263.194V314.667ZM253.391 314.667H248.49V313.687H253.391V314.667ZM243.589 314.667H238.688V313.687H243.589V314.667ZM233.786 314.667H228.885V313.687H233.786V314.667ZM223.984 314.667H219.083V313.687H223.984V314.667ZM214.182 314.667H209.281V313.687H214.182V314.667ZM204.869 314.667H199.968V313.687H204.869V314.667Z" fill="#888888"/>
<path d="M387.683 313.197H385.233V314.177H387.683V313.197Z" fill="#888888"/>
<path d="M41.1695 322.509H38.7189V323.489H41.1695V322.509Z" fill="#888888"/>
<path d="M380.331 323.979H375.43V322.999H380.331V323.979ZM370.529 323.979H365.627V322.999H370.529V323.979ZM360.726 323.979H355.825V322.999H360.726V323.979ZM351.414 323.979H346.513V322.999H351.414V323.979ZM341.612 323.979H336.71V322.999H341.612V323.979ZM331.809 323.979H326.908V322.999H331.809V323.979ZM322.007 323.979H317.106V322.999H322.007V323.979ZM312.695 323.979H307.794V322.999H312.695V323.979ZM302.892 323.979H297.991V322.999H302.892V323.979ZM293.09 323.979H288.189V322.999H293.09V323.979ZM283.288 323.979H278.386V322.999H283.288V323.979ZM273.485 323.979H268.584V322.999H273.485V323.979ZM264.173 323.979H259.272V322.999H264.173V323.979ZM254.371 323.979H249.47V322.999H254.371V323.979ZM244.568 323.979H239.667V322.999H244.568V323.979ZM234.766 323.979H229.865V322.999H234.766V323.979ZM225.454 323.979H220.553V322.999H225.454V323.979ZM215.651 323.979H210.75V322.999H215.651V323.979ZM205.849 323.979H200.948V322.999H205.849V323.979ZM196.047 323.979H191.146V322.999H196.047V323.979ZM186.244 323.979H181.343V322.999H186.244V323.979ZM176.932 323.979H172.031V322.999H176.932V323.979ZM167.13 323.979H162.229V322.999H167.13V323.979ZM157.327 323.979H152.426V322.999H157.327V323.979ZM147.525 323.979H142.624V322.999H147.525V323.979ZM137.723 323.979H132.822V322.999H137.723V323.979ZM128.41 323.979H123.509V322.999H128.41V323.979ZM118.608 323.979H113.707V322.999H118.608V323.979ZM108.806 323.979H103.905V322.999H108.806V323.979ZM99.0034 323.979H94.1022V322.999H99.0034V323.979ZM89.6912 323.979H84.79V322.999H89.6912V323.979ZM79.8888 323.979H74.9876V322.999H79.8888V323.979ZM70.0865 323.979H65.1853V322.999H70.0865V323.979ZM60.2841 323.979H55.3829V322.999H60.2841V323.979ZM50.4817 323.979H45.5806V322.999H50.4817V323.979Z" fill="#888888"/>
<path d="M387.683 322.509H385.232V323.489H387.683V322.509Z" fill="#888888"/>
<path d="M41.1695 168.613H38.7189V169.593H41.1695V168.613Z" fill="#888888"/>
<path d="M380.331 169.593H375.43V168.613H380.331V169.593ZM370.529 169.593H365.627V168.613H370.529V169.593ZM360.726 169.593H355.825V168.613H360.726V169.593ZM351.414 169.593H346.513V168.613H351.414V169.593ZM341.612 169.593H336.71V168.613H341.612V169.593ZM331.809 169.593H326.908V168.613H331.809V169.593ZM322.007 169.593H317.106V168.613H322.007V169.593ZM312.695 169.593H307.794V168.613H312.695V169.593ZM302.892 169.593H297.991V168.613H302.892V169.593ZM293.09 169.593H288.189V168.613H293.09V169.593ZM283.288 169.593H278.386V168.613H283.288V169.593ZM273.485 169.593H268.584V168.613H273.485V169.593ZM264.173 169.593H259.272V168.613H264.173V169.593ZM254.371 169.593H249.47V168.613H254.371V169.593ZM244.568 169.593H239.667V168.613H244.568V169.593ZM234.766 169.593H229.865V168.613H234.766V169.593ZM225.454 169.593H220.553V168.613H225.454V169.593ZM215.651 169.593H210.75V168.613H215.651V169.593ZM205.849 169.593H200.948V168.613H205.849V169.593ZM196.047 169.593H191.146V168.613H196.047V169.593ZM186.244 169.593H181.343V168.613H186.244V169.593ZM176.932 169.593H172.031V168.613H176.932V169.593ZM167.13 169.593H162.229V168.613H167.13V169.593ZM157.327 169.593H152.426V168.613H157.327V169.593ZM147.525 169.593H142.624V168.613H147.525V169.593ZM137.723 169.593H132.822V168.613H137.723V169.593ZM128.41 169.593H123.509V168.613H128.41V169.593ZM118.608 169.593H113.707V168.613H118.608V169.593ZM108.806 169.593H103.905V168.613H108.806V169.593ZM99.0034 169.593H94.1022V168.613H99.0034V169.593ZM89.6912 169.593H84.79V168.613H89.6912V169.593ZM79.8888 169.593H74.9876V168.613H79.8888V169.593ZM70.0865 169.593H65.1853V168.613H70.0865V169.593ZM60.2841 169.593H55.3829V168.613H60.2841V169.593ZM50.4817 169.593H45.5806V168.613H50.4817V169.593Z" fill="#888888"/>
<path d="M387.683 168.613H385.232V169.593H387.683V168.613Z" fill="#888888"/>
<path d="M193.106 465.134H192.126V460.233H193.106V465.134ZM193.106 455.331H192.126V450.43H193.106V455.331ZM193.106 445.529H192.126V440.628H193.106V445.529ZM193.106 435.727H192.126V430.826H193.106V435.727ZM193.106 425.924H192.126V421.023H193.106V425.924ZM193.106 416.122H192.126V411.221H193.106V416.122ZM193.106 406.32H192.126V401.419H193.106V406.32ZM193.106 396.517H192.126V391.616H193.106V396.517ZM193.106 386.715H192.126V381.814H193.106V386.715ZM193.106 376.913H192.126V372.011H193.106V376.913ZM193.106 367.11H192.126V362.209H193.106V367.11ZM193.106 357.308H192.126V352.407H193.106V357.308ZM193.106 347.506H192.126V342.604H193.106V347.506ZM193.106 337.703H192.126V332.802H193.106V337.703ZM193.106 327.901H192.126V323H193.106V327.901ZM193.106 318.099H192.126V313.197H193.106V318.099ZM193.106 308.296H192.126V303.395H193.106V308.296ZM193.106 298.494H192.126V293.593H193.106V298.494ZM193.106 288.691H192.126V283.79H193.106V288.691ZM193.106 278.889H192.126V273.988H193.106V278.889ZM193.106 269.087H192.126V264.186H193.106V269.087ZM193.106 259.284H192.126V254.383H193.106V259.284ZM193.106 249.482H192.126V244.581H193.106V249.482ZM193.106 239.68H192.126V234.778H193.106V239.68ZM193.106 229.877H192.126V224.976H193.106V229.877ZM193.106 220.075H192.126V215.174H193.106V220.075ZM193.106 210.273H192.126V205.371H193.106V210.273ZM193.106 200.47H192.126V195.569H193.106V200.47ZM193.106 190.668H192.126V185.767H193.106V190.668ZM193.106 180.866H192.126V175.964H193.106V180.866ZM193.106 171.063H192.126V166.162H193.106V171.063ZM193.106 161.261H192.126V156.36H193.106V161.261ZM193.106 151.458H192.126V146.557H193.106V151.458ZM193.106 141.656H192.126V136.755H193.106V141.656ZM193.106 131.854H192.126V126.953H193.106V131.854ZM193.106 122.051H192.126V117.15H193.106V122.051ZM193.106 112.249H192.126V107.348H193.106V112.249ZM193.106 102.447H192.126V97.5455H193.106V102.447ZM193.106 92.6444H192.126V87.7432H193.106V92.6444ZM193.106 82.842H192.126V77.9408H193.106V82.842ZM193.106 73.0397H192.126V68.1385H193.106V73.0397ZM193.106 63.2373H192.126V58.3361H193.106V63.2373ZM193.106 53.4349H192.126V48.5338H193.106V53.4349ZM193.106 43.6326H192.126V38.7314H193.106V43.6326ZM193.106 33.8302H192.126V28.9291H193.106V33.8302ZM193.106 24.0279H192.126V19.1267H193.106V24.0279Z" fill="#888888"/>
<path d="M347.493 465.134H346.513V460.233H347.493V465.134ZM347.493 455.331H346.513V450.43H347.493V455.331ZM347.493 445.529H346.513V440.628H347.493V445.529ZM347.493 435.727H346.513V430.826H347.493V435.727ZM347.493 425.924H346.513V421.023H347.493V425.924ZM347.493 416.122H346.513V411.221H347.493V416.122ZM347.493 406.32H346.513V401.419H347.493V406.32ZM347.493 396.517H346.513V391.616H347.493V396.517ZM347.493 386.715H346.513V381.814H347.493V386.715ZM347.493 376.913H346.513V372.011H347.493V376.913ZM347.493 367.11H346.513V362.209H347.493V367.11ZM347.493 357.308H346.513V352.407H347.493V357.308ZM347.493 347.506H346.513V342.604H347.493V347.506ZM347.493 337.703H346.513V332.802H347.493V337.703ZM347.493 327.901H346.513V323H347.493V327.901ZM347.493 318.099H346.513V313.197H347.493V318.099ZM347.493 308.296H346.513V303.395H347.493V308.296ZM347.493 298.494H346.513V293.593H347.493V298.494ZM347.493 288.691H346.513V283.79H347.493V288.691ZM347.493 278.889H346.513V273.988H347.493V278.889ZM347.493 269.087H346.513V264.186H347.493V269.087ZM347.493 259.284H346.513V254.383H347.493V259.284ZM347.493 249.482H346.513V244.581H347.493V249.482ZM347.493 239.68H346.513V234.778H347.493V239.68ZM347.493 229.877H346.513V224.976H347.493V229.877ZM347.493 220.075H346.513V215.174H347.493V220.075ZM347.493 210.273H346.513V205.371H347.493V210.273ZM347.493 200.47H346.513V195.569H347.493V200.47ZM347.493 190.668H346.513V185.767H347.493V190.668ZM347.493 180.866H346.513V175.964H347.493V180.866ZM347.493 171.063H346.513V166.162H347.493V171.063ZM347.493 161.261H346.513V156.36H347.493V161.261ZM347.493 151.458H346.513V146.557H347.493V151.458ZM347.493 141.656H346.513V136.755H347.493V141.656ZM347.493 131.854H346.513V126.953H347.493V131.854ZM347.493 122.051H346.513V117.15H347.493V122.051ZM347.493 112.249H346.513V107.348H347.493V112.249ZM347.493 102.447H346.513V97.5455H347.493V102.447ZM347.493 92.6444H346.513V87.7432H347.493V92.6444ZM347.493 82.842H346.513V77.9408H347.493V82.842ZM347.493 73.0397H346.513V68.1385H347.493V73.0397ZM347.493 63.2373H346.513V58.3361H347.493V63.2373ZM347.493 53.4349H346.513V48.5338H347.493V53.4349ZM347.493 43.6326H346.513V38.7314H347.493V43.6326ZM347.493 33.8302H346.513V28.9291H347.493V33.8302ZM347.493 24.0279H346.513V19.1267H347.493V24.0279Z" fill="#888888"/>
<path d="M337.202 465.134H336.221V460.233H337.202V465.134ZM337.202 455.331H336.221V450.43H337.202V455.331ZM337.202 445.529H336.221V440.628H337.202V445.529ZM337.202 435.727H336.221V430.826H337.202V435.727ZM337.202 425.924H336.221V421.023H337.202V425.924ZM337.202 416.122H336.221V411.221H337.202V416.122ZM337.202 406.32H336.221V401.419H337.202V406.32ZM337.202 396.517H336.221V391.616H337.202V396.517ZM337.202 386.715H336.221V381.814H337.202V386.715ZM337.202 376.913H336.221V372.011H337.202V376.913ZM337.202 367.11H336.221V362.209H337.202V367.11ZM337.202 357.308H336.221V352.407H337.202V357.308ZM337.202 347.506H336.221V342.604H337.202V347.506ZM337.202 337.703H336.221V332.802H337.202V337.703ZM337.202 327.901H336.221V323H337.202V327.901ZM337.202 318.099H336.221V313.197H337.202V318.099ZM337.202 308.296H336.221V303.395H337.202V308.296ZM337.202 298.494H336.221V293.593H337.202V298.494ZM337.202 288.691H336.221V283.79H337.202V288.691ZM337.202 278.889H336.221V273.988H337.202V278.889ZM337.202 269.087H336.221V264.186H337.202V269.087ZM337.202 259.284H336.221V254.383H337.202V259.284ZM337.202 249.482H336.221V244.581H337.202V249.482ZM337.202 239.68H336.221V234.778H337.202V239.68ZM337.202 229.877H336.221V224.976H337.202V229.877ZM337.202 220.075H336.221V215.174H337.202V220.075ZM337.202 210.273H336.221V205.371H337.202V210.273ZM337.202 200.47H336.221V195.569H337.202V200.47ZM337.202 190.668H336.221V185.767H337.202V190.668ZM337.202 180.866H336.221V175.964H337.202V180.866ZM337.202 171.063H336.221V166.162H337.202V171.063ZM337.202 161.261H336.221V156.36H337.202V161.261ZM337.202 151.458H336.221V146.557H337.202V151.458ZM337.202 141.656H336.221V136.755H337.202V141.656ZM337.202 131.854H336.221V126.953H337.202V131.854ZM337.202 122.051H336.221V117.15H337.202V122.051ZM337.202 112.249H336.221V107.348H337.202V112.249ZM337.202 102.447H336.221V97.5455H337.202V102.447ZM337.202 92.6444H336.221V87.7432H337.202V92.6444ZM337.202 82.842H336.221V77.9408H337.202V82.842ZM337.202 73.0397H336.221V68.1385H337.202V73.0397ZM337.202 63.2373H336.221V58.3361H337.202V63.2373ZM337.202 53.4349H336.221V48.5338H337.202V53.4349ZM337.202 43.6326H336.221V38.7314H337.202V43.6326ZM337.202 33.8302H336.221V28.9291H337.202V33.8302ZM337.202 24.0279H336.221V19.1267H337.202V24.0279Z" fill="#888888"/>
<path d="M182.814 371.031H181.834V366.13H182.814V371.031ZM182.814 361.228H181.834V356.327H182.814V361.228ZM182.814 351.426H181.834V346.525H182.814V351.426ZM182.814 341.624H181.834V336.723H182.814V341.624ZM182.814 331.821H181.834V326.92H182.814V331.821ZM182.814 322.019H181.834V317.118H182.814V322.019ZM182.814 312.217H181.834V307.315H182.814V312.217ZM182.814 302.414H181.834V297.513H182.814V302.414ZM182.814 292.612H181.834V287.711H182.814V292.612ZM182.814 282.81H181.834V277.908H182.814V282.81ZM182.814 273.007H181.834V268.106H182.814V273.007ZM182.814 263.205H181.834V258.304H182.814V263.205ZM182.814 253.403H181.834V248.501H182.814V253.403ZM182.814 243.6H181.834V238.699H182.814V243.6ZM182.814 233.798H181.834V228.897H182.814V233.798ZM182.814 223.995H181.834V219.094H182.814V223.995ZM182.814 214.193H181.834V209.292H182.814V214.193ZM182.814 204.391H181.834V199.49H182.814V204.391ZM182.814 194.588H181.834V189.687H182.814V194.588ZM182.814 184.786H181.834V179.885H182.814V184.786ZM182.814 174.984H181.834V170.083H182.814V174.984ZM182.814 165.181H181.834V160.28H182.814V165.181ZM182.814 155.379H181.834V150.478H182.814V155.379ZM182.814 145.577H181.834V140.675H182.814V145.577ZM182.814 135.774H181.834V130.873H182.814V135.774ZM182.814 125.972H181.834V121.071H182.814V125.972ZM182.814 116.17H181.834V111.268H182.814V116.17Z" fill="#888888"/>
<path d="M407.288 167.142H405.818V186.747H407.288V167.142Z" fill="#888888"/>
<path d="M459.73 167.142H458.26V186.747H459.73V167.142Z" fill="#888888"/>
<path d="M407.288 294.573H405.818V312.707H407.288V294.573Z" fill="#888888"/>
<path d="M459.73 294.573H458.26V312.707H459.73V294.573Z" fill="#888888"/>
<path d="M407.778 186.747H401.897V189.687H407.778V186.747Z" fill="#888888"/>
<path d="M407.778 215.174H401.897V218.114H407.778V215.174Z" fill="#888888"/>
<path d="M459.731 186.747H453.849V189.687H459.731V186.747Z" fill="#888888"/>
<path d="M459.731 215.664H453.849V218.605H459.731V215.664Z" fill="#888888"/>
<path d="M407.778 263.205H401.897V266.146H407.778V263.205Z" fill="#888888"/>
<path d="M459.731 263.695H453.849V266.636H459.731V263.695Z" fill="#888888"/>
<path d="M407.778 292.122H401.897V295.063H407.778V292.122Z" fill="#888888"/>
<path d="M459.731 292.612H453.849V295.553H459.731V292.612Z" fill="#888888"/>
<path d="M421.358 274.913L405.095 291.91L406.157 292.927L422.42 275.93L421.358 274.913Z" fill="#888888"/>
<path d="M421.135 245.603L404.876 262.605L405.584 263.283L421.843 246.281L421.135 245.603Z" fill="#888888"/>
<path d="M456.79 264.675L456.3 263.695L472.474 246.541L472.964 247.521L456.79 264.675Z" fill="#888888"/>
<path d="M406.344 217.159L405.282 218.175L421.545 235.173L422.607 234.156L406.344 217.159Z" fill="#888888"/>
<path d="M472.474 234.288L456.3 217.134L456.79 216.644L472.964 233.308L472.474 234.288Z" fill="#888888"/>
<path d="M404.379 187.316L403.317 188.333L420.936 206.749L421.998 205.733L404.379 187.316Z" fill="#888888"/>
<path d="M472.474 206.352L456.3 189.198L456.79 188.217L472.964 205.371L472.474 206.352Z" fill="#888888"/>
<path d="M456.3 294.082L455.809 293.102L472.964 274.968L473.454 275.948L456.3 294.082Z" fill="#888888"/>
</svg>
